<?xml version="1.0" encoding="UTF-8"?>
<!DOCTYPE svg PUBLIC "-//W3C//DTD SVG 1.1//EN" "http://www.w3.org/Graphics/SVG/1.1/DTD/svg11.dtd">
<!-- Creator: CorelDRAW 2017 -->
<svg xmlns="http://www.w3.org/2000/svg" xml:space="preserve" width="36.9326mm" height="43.857mm" version="1.1" style="shape-rendering:geometricPrecision; text-rendering:geometricPrecision; image-rendering:optimizeQuality; fill-rule:evenodd; clip-rule:evenodd"
viewBox="0 0 913.78 1085.11"
 xmlns:xlink="http://www.w3.org/1999/xlink">
 <defs>
  <style type="text/css">
   <![CDATA[
    .fil1 {fill:white}
    .fil0 {fill:url(#id0)}
   ]]>
  </style>
  <linearGradient id="id0" gradientUnits="userSpaceOnUse" x1="456.89" y1="-0.01" x2="456.89" y2="1085.1">
   <stop offset="0" style="stop-opacity:1; stop-color:#F0597D"/>
   <stop offset="1" style="stop-opacity:1; stop-color:#5D51A0"/>
  </linearGradient>
 </defs>
 <g id="Capa_x0020_1">
  <metadata id="CorelCorpID_0Corel-Layer"/>
  <g id="_1586563600176">
   <polygon class="fil0" points="913.78,1085.11 456.89,848.5 -0,1085.11 -0,0 913.78,0 "/>
   <path class="fil1" d="M629.21 547.07c0,50.38 -40.99,91.36 -91.36,91.36l-161.92 0c-50.38,0 -91.36,-40.98 -91.36,-91.36l0 -161.91c0,-50.38 40.98,-91.36 91.36,-91.36l161.92 0c50.37,0 91.36,40.98 91.36,91.36l0 161.91zm-91.36 -294.32l-161.92 0c-73,0 -132.4,59.4 -132.4,132.4l0 161.91c0,73.01 59.4,132.41 132.4,132.41l161.92 0c73,0 132.4,-59.4 132.4,-132.41l0 -161.91c0,-73.01 -59.4,-132.4 -132.4,-132.4z"/>
   <path class="fil1" d="M456.89 539.98c-40.73,0 -73.87,-33.14 -73.87,-73.87 0,-40.73 33.14,-73.87 73.87,-73.87 40.73,0 73.87,33.14 73.87,73.87 0,40.73 -33.14,73.87 -73.87,73.87zm0 -188.78c-63.36,0 -114.91,51.54 -114.91,114.91 0,63.36 51.55,114.91 114.91,114.91 63.36,0 114.91,-51.54 114.91,-114.91 0,-63.37 -51.55,-114.91 -114.91,-114.91z"/>
   <path class="fil1" d="M562.25 326.27c-13.98,0 -25.31,11.33 -25.31,25.31 0,13.98 11.33,25.31 25.31,25.31 13.98,0 25.31,-11.33 25.31,-25.31 0,-13.98 -11.33,-25.31 -25.31,-25.31z"/>
  </g>
 </g>
</svg>
